<svg width="57" height="38" viewBox="0 0 57 38" fill="none" xmlns="http://www.w3.org/2000/svg">
<rect x="0.355774" y="0.428589" width="56.2225" height="37.1429" rx="2.81113" fill="#EDEDED"/>
<path d="M49.5505 19.9657V18.0127H46.4458V14.7143H44.2218V18.0127H41.1171V19.9657H44.2218V23.2857H46.4458V19.9657H49.5505Z" fill="#00003D"/>
<path d="M17.2747 9.00003C18.379 9.00003 19.3961 9.12667 20.326 9.37995C21.2559 9.61514 22.0599 9.97696 22.738 10.4654C23.4161 10.9358 23.9392 11.5147 24.3072 12.2022C24.6947 12.8897 24.8884 13.6676 24.8884 14.536C24.8884 15.5672 24.656 16.5532 24.191 17.4939C23.7454 18.4347 23.0867 19.3483 22.2149 20.2348C21.3625 21.1212 20.3163 21.9896 19.0764 22.8399C17.8365 23.6721 16.4417 24.5043 14.8918 25.3365H24.9756V29H8.78918V25.3365C10.2034 24.3777 11.5886 23.446 12.9448 22.5414C14.3009 21.6188 15.5021 20.7232 16.5482 19.8548C17.6137 18.9684 18.4662 18.109 19.1055 17.2768C19.7448 16.4446 20.0645 15.6215 20.0645 14.8074C20.0645 13.9571 19.7739 13.3329 19.1927 12.9349C18.6115 12.5188 17.9237 12.3108 17.1294 12.3108C16.7032 12.3108 16.277 12.3831 15.8508 12.5278C15.4439 12.6545 15.0758 12.8716 14.7465 13.1791C14.4365 13.4867 14.1847 13.9118 13.9909 14.4546C13.7972 14.9792 13.7197 15.6305 13.7585 16.4084H9.02166C8.98292 15.2506 9.15728 14.2103 9.54475 13.2877C9.95159 12.365 10.5231 11.5871 11.2593 10.9539C11.9955 10.3207 12.877 9.84128 13.9038 9.51563C14.9305 9.1719 16.0542 9.00003 17.2747 9.00003Z" fill="#00003D"/>
<path d="M32.1346 29V15.7843H27.3397V12.5007C28.2115 12.4826 28.9671 12.4103 29.6064 12.2836C30.2651 12.1389 30.8269 11.9399 31.2919 11.6866C31.7568 11.4333 32.1443 11.1167 32.4543 10.7368C32.7642 10.3388 33.0355 9.86842 33.268 9.32568H36.9005V29H32.1346Z" fill="#00003D"/>
</svg>
