<svg width="86" height="40" viewBox="0 0 86 40" fill="none" xmlns="http://www.w3.org/2000/svg">
<path fill-rule="evenodd" clip-rule="evenodd" d="M19.6305 0C19.6661 0.350689 19.6815 0.703168 19.6765 1.05568C19.5618 2.866 18.8029 4.57456 17.5383 5.86935C16.9608 6.47801 16.3212 7.01196 15.534 7.32582C14.8607 7.59639 14.1565 7.64872 13.4469 7.70147L13.4378 7.70215L13.4355 7.70199C13.4334 7.70167 13.4312 7.70093 13.4291 7.69994C13.4269 7.69901 13.4248 7.69783 13.4226 7.69652L13.4154 7.69163C13.4115 7.68897 13.4077 7.68635 13.404 7.6845C13.5054 3.52569 15.5922 0.83556 19.6305 0ZM25.8962 10.3106L25.6424 10.5435C25.4044 10.7614 25.1664 10.9794 24.932 11.2018C23.8081 12.2697 22.9642 13.5115 22.6666 15.0604C22.4525 16.0777 22.4597 17.1294 22.6878 18.1436C22.9158 19.1578 23.3594 20.1105 23.988 20.9365C24.6358 21.8183 25.408 22.5506 26.4359 22.9745C26.5085 23.004 26.5815 23.0315 26.6603 23.0612C26.7123 23.0808 26.7668 23.1013 26.8253 23.124C26.8014 23.1887 26.778 23.2532 26.755 23.3176L26.7028 23.4643L26.6929 23.4919L26.6815 23.5245C26.6007 23.7528 26.5206 23.9783 26.4291 24.2C25.5919 26.238 24.5033 28.1238 23.0169 29.7596C22.736 30.062 22.4326 30.3427 22.1095 30.5992C21.0276 31.4823 19.8104 31.822 18.4378 31.4144C17.7534 31.2133 17.0773 30.9878 16.3956 30.7772C15.7012 30.5414 14.9774 30.4042 14.2452 30.3696C13.3283 30.3479 12.4872 30.6237 11.6351 30.9361C10.9974 31.189 10.3454 31.4036 9.68229 31.5788C8.63686 31.8302 7.69015 31.5068 6.82468 30.9171C5.97289 30.3119 5.23935 29.5543 4.66081 28.6822C3.1533 26.5499 2.02118 24.1735 1.31362 21.6566C0.678679 19.4232 0.525964 17.0793 0.865993 14.7819C1.17155 12.7344 1.9317 10.8866 3.36254 9.35952C4.85015 7.77804 6.68261 7.12724 8.82759 7.34193C9.89597 7.44791 10.9157 7.75902 11.938 8.05792C12.1275 8.11352 12.3189 8.16294 12.5109 8.21036L12.6592 8.24658L12.8145 8.28418C12.8859 8.30141 12.9574 8.31867 13.0287 8.33619C13.0963 8.35275 13.1637 8.36954 13.231 8.38671C13.8351 8.52348 14.465 8.49202 15.0527 8.29569C15.4946 8.16598 15.9336 8.02691 16.3717 7.88812L16.3744 7.88726C16.7707 7.76174 17.1662 7.63648 17.5628 7.51854C18.7929 7.13169 20.0985 7.05333 21.3657 7.2903C23.0319 7.61365 24.349 8.51309 25.4513 9.77389C25.5865 9.93151 25.7218 10.0918 25.8571 10.2521C25.8718 10.2704 25.8849 10.2899 25.8962 10.3106ZM41.3651 4.42909C39.1642 4.41697 36.9661 4.58923 34.7938 4.94401V31.2677H38.2167V20.5969C39.0038 20.7939 39.9478 20.8334 40.9702 20.8334C44.3147 20.8334 47.2643 19.8429 49.0779 17.9041C50.4153 16.521 51.124 14.623 51.124 12.2128C51.124 9.84464 50.2584 7.90721 48.8033 6.64231C47.2264 5.2198 44.7461 4.42909 41.3651 4.42909ZM41.0486 18.059C39.9085 18.059 38.9632 17.9856 38.2167 17.7873V7.42352C38.8063 7.26999 39.9478 7.1518 41.4421 7.1518C45.2195 7.1518 47.697 8.85013 47.697 12.3676C47.697 16.0441 45.1789 18.059 41.0486 18.059ZM63.4686 31.2652L63.1982 28.8536H63.0804C62.0175 30.3563 59.97 31.7 57.257 31.7C53.4027 31.7 51.4349 28.9731 51.4349 26.2056C51.4349 21.5862 55.5273 19.0523 62.883 19.0917V18.6964C62.883 17.1163 62.4502 14.2699 58.5554 14.2699C56.785 14.2699 54.9363 14.8242 53.5988 15.6938L52.8116 13.4017C54.3858 12.3732 56.6674 11.7021 59.0665 11.7021C64.8899 11.7021 66.306 15.6938 66.306 19.5265V26.6757C66.306 28.336 66.3844 29.9568 66.6198 31.2611L63.4686 31.2652ZM62.9574 21.5033C59.1814 21.4245 54.893 22.0957 54.893 25.8102C54.893 28.0629 56.3874 29.1307 58.1591 29.1307C60.6366 29.1307 62.2162 27.5493 62.7573 25.9298C62.8792 25.5731 62.9453 25.1996 62.9533 24.8225L62.9574 21.5033ZM75.0697 23.4408L70.9002 12.1383H67.1243L74.1594 29.7585C74.3177 30.1933 74.3962 30.4691 74.3962 30.6675C74.3962 30.8658 74.2839 31.1416 74.1257 31.4976C73.4682 32.9984 72.4717 34.3246 71.2153 35.3711C70.3227 36.128 69.2945 36.7067 68.1859 37.0762L69.0514 40C69.9184 39.8424 71.6089 39.25 73.2994 37.7474C75.6606 35.6904 77.3511 32.3332 79.8302 25.7723L85.0234 12.1383H81.3651L77.5824 23.362C77.2771 24.2616 77.004 25.1946 76.7528 26.0525C76.6177 26.5135 76.4891 26.9529 76.3653 27.3537H76.2868C75.9744 26.207 75.5024 24.7058 75.0697 23.4408Z" fill="white"/>
</svg>
