<svg width="156" height="52" viewBox="0 0 156 52" fill="none" xmlns="http://www.w3.org/2000/svg">
<rect x="0.5" y="0.5" width="154.516" height="50.8387" rx="4.5" stroke="white"/>
<path d="M32.1004 26.3095C32.1143 25.2278 32.4016 24.1672 32.9356 23.2264C33.4696 22.2856 34.2328 21.4951 35.1544 20.9286C34.569 20.0925 33.7966 19.4044 32.8987 18.919C32.0009 18.4336 31.0022 18.1642 29.982 18.1323C27.8058 17.9039 25.696 19.4345 24.587 19.4345C23.4566 19.4345 21.7492 18.155 19.9105 18.1928C18.7213 18.2312 17.5622 18.577 16.5463 19.1966C15.5305 19.8161 14.6924 20.6883 14.1138 21.728C11.6074 26.0674 13.4769 32.4449 15.8779 35.9526C17.0791 37.6702 18.483 39.5888 20.3199 39.5208C22.1175 39.4462 22.7889 38.3745 24.9587 38.3745C27.1084 38.3745 27.7383 39.5208 29.6125 39.4775C31.5414 39.4462 32.7567 37.7523 33.9158 36.0184C34.7789 34.7946 35.443 33.4419 35.8836 32.0106C34.763 31.5367 33.8067 30.7433 33.1339 29.7295C32.4611 28.7157 32.1017 27.5262 32.1004 26.3095Z" fill="white"/>
<path d="M28.5609 15.8254C29.6126 14.5628 30.1308 12.9401 30.0053 11.3017C28.3985 11.4704 26.9143 12.2384 25.8484 13.4525C25.3272 14.0456 24.9281 14.7356 24.6738 15.4831C24.4194 16.2305 24.3149 17.0208 24.3662 17.8087C25.1699 17.817 25.965 17.6428 26.6916 17.2992C27.4182 16.9557 28.0573 16.4518 28.5609 15.8254Z" fill="white"/>
<path d="M54.8222 35.1711H48.6879L47.2147 39.5209H44.6165L50.4268 23.4276H53.1263L58.9366 39.5209H56.294L54.8222 35.1711ZM49.3232 33.1638H54.1856L51.7886 26.1044H51.7215L49.3232 33.1638Z" fill="white"/>
<path d="M71.4851 33.6573C71.4851 37.3035 69.5335 39.6461 66.5885 39.6461C65.8425 39.6851 65.1005 39.5133 64.4476 39.1502C63.7947 38.7872 63.2573 38.2476 62.8968 37.5933H62.841V43.4049H60.4326V27.7901H62.7639V29.7416H62.8082C63.1852 29.0904 63.7318 28.5536 64.3897 28.1884C65.0475 27.8231 65.7921 27.643 66.5442 27.6673C69.5221 27.6673 71.4851 30.0213 71.4851 33.6573ZM69.0096 33.6573C69.0096 31.2818 67.7819 29.7201 65.9089 29.7201C64.0687 29.7201 62.8309 31.3147 62.8309 33.6573C62.8309 36.0215 64.0687 37.6047 65.9089 37.6047C67.7819 37.6047 69.0096 36.0544 69.0096 33.6573Z" fill="white"/>
<path d="M84.3986 33.6573C84.3986 37.3035 82.4471 39.6461 79.5021 39.6461C78.756 39.6851 78.0141 39.5133 77.3612 39.1502C76.7083 38.7872 76.1708 38.2476 75.8103 37.5933H75.7546V43.4049H73.3462V27.79H75.6774V29.7416H75.7217C76.0988 29.0904 76.6453 28.5536 77.3032 28.1884C77.9611 27.8231 78.7056 27.643 79.4577 27.6673C82.4357 27.6673 84.3986 30.0213 84.3986 33.6573ZM81.9231 33.6573C81.9231 31.2818 80.6955 29.7201 78.8224 29.7201C76.9823 29.7201 75.7445 31.3147 75.7445 33.6573C75.7445 36.0215 76.9823 37.6047 78.8224 37.6047C80.6955 37.6047 81.9231 36.0544 81.9231 33.6573H81.9231Z" fill="white"/>
<path d="M92.9327 35.0389C93.1111 36.6348 94.6615 37.6826 96.7801 37.6826C98.8101 37.6826 100.271 36.6347 100.271 35.1958C100.271 33.9466 99.3897 33.1987 97.304 32.6861L95.2184 32.1837C92.2632 31.4699 90.8913 30.0878 90.8913 27.8452C90.8913 25.0685 93.3111 23.1613 96.7472 23.1613C100.148 23.1613 102.479 25.0685 102.558 27.8452H100.126C99.9807 26.2392 98.6531 25.2697 96.713 25.2697C94.7728 25.2697 93.4452 26.2506 93.4452 27.6782C93.4452 28.8159 94.2932 29.4854 96.3675 29.9979L98.1406 30.4333C101.442 31.2142 102.814 32.5405 102.814 34.8945C102.814 37.9053 100.416 39.7911 96.6016 39.7911C93.0326 39.7911 90.623 37.9496 90.4673 35.0388L92.9327 35.0389Z" fill="white"/>
<path d="M108.014 25.0129V27.7896H110.246V29.6969H108.014V36.1653C108.014 37.1702 108.461 37.6385 109.442 37.6385C109.707 37.6338 109.971 37.6152 110.234 37.5827V39.4786C109.793 39.561 109.345 39.5983 108.897 39.59C106.521 39.59 105.595 38.6977 105.595 36.4222V29.6969H103.889V27.7896H105.595V25.0129H108.014Z" fill="white"/>
<path d="M111.538 33.6568C111.538 29.965 113.712 27.6452 117.102 27.6452C120.504 27.6452 122.668 29.965 122.668 33.6568C122.668 37.3586 120.516 39.6683 117.102 39.6683C113.69 39.6683 111.538 37.3586 111.538 33.6568ZM120.214 33.6568C120.214 31.1243 119.054 29.6296 117.102 29.6296C115.151 29.6296 113.992 31.1357 113.992 33.6568C113.992 36.1993 115.151 37.6826 117.102 37.6826C119.054 37.6826 120.214 36.1993 120.214 33.6568H120.214Z" fill="white"/>
<path d="M124.654 27.79H126.951V29.787H127.007C127.162 29.1633 127.527 28.6121 128.041 28.226C128.555 27.84 129.187 27.6426 129.829 27.6672C130.106 27.6662 130.383 27.6963 130.654 27.757V30.0098C130.304 29.9027 129.938 29.8536 129.572 29.8642C129.222 29.85 128.873 29.9117 128.549 30.0451C128.226 30.1784 127.935 30.3802 127.696 30.6367C127.458 30.8932 127.278 31.1982 127.168 31.5308C127.059 31.8634 127.023 32.2158 127.062 32.5637V39.5232H124.654L124.654 27.79Z" fill="white"/>
<path d="M141.759 36.0766C141.435 38.2065 139.361 39.6683 136.707 39.6683C133.293 39.6683 131.175 37.3814 131.175 33.7124C131.175 30.0321 133.305 27.6452 136.605 27.6452C139.852 27.6452 141.893 29.8752 141.893 33.4327V34.2579H133.606V34.4034C133.568 34.8353 133.622 35.2703 133.765 35.6796C133.907 36.0889 134.136 36.4632 134.434 36.7775C134.733 37.0918 135.095 37.339 135.496 37.5027C135.898 37.6664 136.329 37.7428 136.762 37.7269C137.332 37.7802 137.903 37.6484 138.391 37.351C138.879 37.0537 139.258 36.6067 139.472 36.0765L141.759 36.0766ZM133.617 32.5747H139.483C139.505 32.1864 139.446 31.7979 139.311 31.4334C139.175 31.069 138.965 30.7365 138.695 30.4569C138.425 30.1773 138.1 29.9565 137.74 29.8085C137.381 29.6605 136.994 29.5884 136.605 29.5967C136.213 29.5944 135.824 29.6698 135.462 29.8185C135.099 29.9672 134.769 30.1863 134.491 30.4631C134.213 30.74 133.993 31.0691 133.843 31.4315C133.693 31.794 133.616 32.1825 133.617 32.5747V32.5747Z" fill="white"/>
<path d="M49.0214 11.3132C49.5263 11.277 50.033 11.3533 50.5049 11.5366C50.9768 11.7198 51.4021 12.0056 51.7502 12.3732C52.0982 12.7407 52.3604 13.181 52.5177 13.6621C52.6751 14.1433 52.7237 14.6533 52.66 15.1555C52.66 17.626 51.3248 19.046 49.0214 19.046H46.2283V11.3132H49.0214ZM47.4293 17.9524H48.8873C49.2481 17.974 49.6091 17.9148 49.9442 17.7793C50.2793 17.6437 50.5799 17.4351 50.8241 17.1687C51.0684 16.9023 51.2502 16.5848 51.3563 16.2393C51.4624 15.8937 51.4901 15.5289 51.4374 15.1713C51.4863 14.8151 51.4558 14.4526 51.3481 14.1096C51.2403 13.7666 51.0581 13.4516 50.8144 13.1874C50.5706 12.9231 50.2715 12.716 49.9383 12.5809C49.6051 12.4458 49.2462 12.3861 48.8873 12.406H47.4293V17.9524Z" fill="white"/>
<path d="M54.0164 16.1275C53.9797 15.744 54.0236 15.3571 54.1452 14.9915C54.2668 14.626 54.4635 14.2899 54.7226 14.0048C54.9818 13.7197 55.2976 13.4919 55.6499 13.3361C56.0022 13.1802 56.3832 13.0997 56.7685 13.0997C57.1537 13.0997 57.5347 13.1802 57.887 13.3361C58.2393 13.4919 58.5552 13.7197 58.8143 14.0048C59.0734 14.2899 59.2701 14.626 59.3917 14.9915C59.5133 15.3571 59.5572 15.744 59.5205 16.1275C59.5579 16.5114 59.5145 16.8989 59.3932 17.265C59.2719 17.6312 59.0754 17.9679 58.8162 18.2535C58.557 18.5392 58.2409 18.7675 57.8883 18.9237C57.5356 19.0799 57.1542 19.1606 56.7685 19.1606C56.3828 19.1606 56.0013 19.0799 55.6486 18.9237C55.296 18.7675 54.9799 18.5392 54.7207 18.2535C54.4615 17.9679 54.265 17.6312 54.1437 17.265C54.0224 16.8989 53.9791 16.5114 54.0164 16.1275ZM58.3359 16.1275C58.3359 14.8626 57.7676 14.1228 56.7704 14.1228C55.7693 14.1228 55.2061 14.8626 55.2061 16.1275C55.2061 17.4026 55.7693 18.1367 56.7704 18.1367C57.7677 18.1367 58.3359 17.3976 58.3359 16.1275H58.3359Z" fill="white"/>
<path d="M66.8369 19.0481H65.6422L64.4361 14.7501H64.345L63.1439 19.0481H61.9606L60.3521 13.2124H61.5202L62.5656 17.6654H62.6516L63.8514 13.2124H64.9563L66.156 17.6654H66.2472L67.2875 13.2124H68.4392L66.8369 19.0481Z" fill="white"/>
<path d="M69.792 13.2128H70.9006V14.1399H70.9867C71.1327 13.8069 71.3789 13.5278 71.6911 13.3414C72.0033 13.155 72.3658 13.0707 72.7282 13.1002C73.0121 13.0788 73.2972 13.1216 73.5624 13.2254C73.8275 13.3292 74.0659 13.4914 74.2599 13.6998C74.4539 13.9083 74.5985 14.1577 74.683 14.4296C74.7675 14.7015 74.7897 14.989 74.748 15.2706V19.0484H73.5964V15.5599C73.5964 14.6221 73.1888 14.1557 72.3371 14.1557C72.1443 14.1467 71.9519 14.1795 71.7729 14.2519C71.594 14.3242 71.4329 14.4344 71.3005 14.5749C71.1682 14.7153 71.0678 14.8827 71.0062 15.0656C70.9446 15.2485 70.9233 15.4426 70.9437 15.6345V19.0484H69.792L69.792 13.2128Z" fill="white"/>
<path d="M76.584 10.934H77.7357V19.0477H76.584V10.934Z" fill="white"/>
<path d="M79.3353 16.1276C79.2986 15.7441 79.3425 15.3572 79.4641 14.9916C79.5858 14.626 79.7825 14.2899 80.0416 14.0048C80.3008 13.7197 80.6166 13.4919 80.969 13.3361C81.3213 13.1802 81.7023 13.0997 82.0876 13.0997C82.4729 13.0997 82.8539 13.1802 83.2062 13.3361C83.5586 13.4919 83.8744 13.7197 84.1336 14.0048C84.3927 14.2899 84.5894 14.626 84.7111 14.9916C84.8327 15.3572 84.8766 15.7441 84.8399 16.1276C84.8773 16.5115 84.8339 16.899 84.7126 17.2652C84.5912 17.6313 84.3946 17.968 84.1354 18.2537C83.8762 18.5393 83.5601 18.7675 83.2074 18.9237C82.8548 19.0799 82.4733 19.1606 82.0876 19.1606C81.7019 19.1606 81.3204 19.0799 80.9677 18.9237C80.6151 18.7675 80.299 18.5393 80.0398 18.2537C79.7806 17.968 79.584 17.6313 79.4626 17.2652C79.3413 16.899 79.2979 16.5115 79.3353 16.1276ZM83.6547 16.1276C83.6547 14.8627 83.0864 14.123 82.0892 14.123C81.0881 14.123 80.525 14.8627 80.525 16.1277C80.525 17.4027 81.0881 18.1368 82.0892 18.1368C83.0865 18.1368 83.6547 17.3977 83.6547 16.1276H83.6547Z" fill="white"/>
<path d="M86.0537 17.3976C86.0537 16.3472 86.8358 15.7416 88.2242 15.6555L89.8049 15.5644V15.0607C89.8049 14.4444 89.3974 14.0963 88.6102 14.0963C87.9673 14.0963 87.5218 14.3324 87.394 14.7449H86.279C86.3967 13.7426 87.3396 13.0997 88.6634 13.0997C90.1264 13.0997 90.9515 13.828 90.9515 15.0607V19.0479H89.8429V18.2278H89.7518C89.5668 18.522 89.3071 18.7618 88.9991 18.9228C88.6912 19.0838 88.346 19.1601 87.9989 19.1441C87.7539 19.1696 87.5063 19.1434 87.2721 19.0674C87.0378 18.9913 86.8221 18.867 86.6388 18.7024C86.4556 18.5379 86.3088 18.3368 86.208 18.112C86.1072 17.8873 86.0547 17.6439 86.0537 17.3976ZM89.8049 16.899V16.4111L88.3799 16.5022C87.5762 16.556 87.2117 16.8294 87.2117 17.3438C87.2117 17.869 87.6673 18.1747 88.2938 18.1747C88.4774 18.1932 88.6628 18.1747 88.8391 18.1202C89.0154 18.0656 89.1788 17.9762 89.3198 17.8571C89.4608 17.7381 89.5764 17.592 89.6597 17.4273C89.7431 17.2627 89.7925 17.083 89.8049 16.899Z" fill="white"/>
<path d="M92.4658 16.1274C92.4658 14.2834 93.4138 13.1153 94.8882 13.1153C95.2529 13.0985 95.6148 13.1858 95.9317 13.3671C96.2486 13.5484 96.5074 13.8162 96.6777 14.1391H96.7638V10.934H97.9154V19.0477H96.8119V18.1257H96.7207C96.5372 18.4465 96.2695 18.7109 95.9464 18.8904C95.6234 19.0698 95.2574 19.1575 94.8882 19.1439C93.4036 19.144 92.4658 17.9758 92.4658 16.1274ZM93.6555 16.1274C93.6555 17.3651 94.239 18.1099 95.2147 18.1099C96.1854 18.1099 96.7853 17.3544 96.7853 16.1325C96.7853 14.9162 96.1791 14.1499 95.2147 14.1499C94.2452 14.1499 93.6555 14.8998 93.6555 16.1274H93.6555Z" fill="white"/>
<path d="M102.679 16.1275C102.642 15.744 102.686 15.3571 102.808 14.9915C102.929 14.626 103.126 14.2899 103.385 14.0048C103.644 13.7197 103.96 13.4919 104.312 13.3361C104.665 13.1802 105.046 13.0997 105.431 13.0997C105.816 13.0997 106.197 13.1802 106.55 13.3361C106.902 13.4919 107.218 13.7197 107.477 14.0048C107.736 14.2899 107.933 14.626 108.054 14.9915C108.176 15.3571 108.22 15.744 108.183 16.1275C108.22 16.5114 108.177 16.8989 108.056 17.265C107.935 17.6312 107.738 17.9679 107.479 18.2535C107.22 18.5392 106.904 18.7675 106.551 18.9237C106.198 19.0799 105.817 19.1606 105.431 19.1606C105.045 19.1606 104.664 19.0799 104.311 18.9237C103.959 18.7675 103.642 18.5392 103.383 18.2535C103.124 17.9679 102.928 17.6312 102.806 17.265C102.685 16.8989 102.642 16.5114 102.679 16.1275ZM106.998 16.1275C106.998 14.8626 106.43 14.1228 105.433 14.1228C104.432 14.1228 103.869 14.8626 103.869 16.1275C103.869 17.4026 104.432 18.1367 105.433 18.1367C106.43 18.1367 106.998 17.3976 106.998 16.1275Z" fill="white"/>
<path d="M109.729 13.2128H110.838V14.1399H110.924C111.07 13.8069 111.316 13.5278 111.629 13.3414C111.941 13.155 112.303 13.0707 112.666 13.1002C112.95 13.0788 113.235 13.1216 113.5 13.2254C113.765 13.3292 114.003 13.4914 114.197 13.6998C114.391 13.9083 114.536 14.1577 114.62 14.4296C114.705 14.7015 114.727 14.989 114.686 15.2706V19.0484H113.534V15.5599C113.534 14.6221 113.126 14.1557 112.275 14.1557C112.082 14.1467 111.889 14.1795 111.71 14.2519C111.532 14.3242 111.37 14.4344 111.238 14.5749C111.106 14.7153 111.005 14.8827 110.944 15.0656C110.882 15.2485 110.861 15.4426 110.881 15.6345V19.0484H109.729V13.2128Z" fill="white"/>
<path d="M121.191 11.7592V13.2387H122.456V14.2088H121.191V17.2095C121.191 17.8208 121.443 18.0884 122.016 18.0884C122.163 18.088 122.31 18.0791 122.456 18.0619V19.0212C122.249 19.0582 122.039 19.0778 121.829 19.08C120.548 19.08 120.038 18.6295 120.038 17.5044V14.2087H119.112V13.2386H120.038V11.7592H121.191Z" fill="white"/>
<path d="M124.03 10.934H125.172V14.1499H125.263C125.416 13.8138 125.669 13.5331 125.987 13.3461C126.306 13.159 126.674 13.0746 127.042 13.1045C127.325 13.0891 127.607 13.1363 127.869 13.2426C128.131 13.3489 128.367 13.5118 128.559 13.7196C128.751 13.9274 128.895 14.175 128.98 14.4447C129.065 14.7145 129.09 14.9997 129.052 15.2801V19.0477H127.899V15.5642C127.899 14.6321 127.465 14.16 126.651 14.16C126.453 14.1438 126.254 14.171 126.068 14.2397C125.882 14.3085 125.713 14.4171 125.573 14.558C125.433 14.699 125.325 14.8688 125.258 15.0556C125.19 15.2424 125.164 15.4416 125.182 15.6395V19.0477H124.03L124.03 10.934Z" fill="white"/>
<path d="M135.766 17.4719C135.609 18.0052 135.27 18.4665 134.808 18.7752C134.346 19.0838 133.79 19.2201 133.237 19.1601C132.853 19.1703 132.471 19.0967 132.118 18.9443C131.764 18.792 131.449 18.5647 131.192 18.2781C130.936 17.9915 130.745 17.6526 130.632 17.2847C130.52 16.9169 130.489 16.529 130.541 16.1481C130.49 15.7659 130.522 15.3772 130.634 15.0083C130.746 14.6393 130.936 14.2988 131.191 14.0097C131.446 13.7206 131.761 13.4897 132.113 13.3326C132.465 13.1756 132.847 13.096 133.232 13.0992C134.856 13.0992 135.835 14.2086 135.835 16.0411V16.443H131.715V16.5075C131.697 16.7216 131.724 16.9372 131.794 17.1403C131.864 17.3435 131.976 17.5297 132.122 17.6871C132.268 17.8445 132.446 17.9696 132.643 18.0544C132.841 18.1391 133.054 18.1817 133.269 18.1793C133.544 18.2124 133.823 18.1628 134.071 18.0368C134.318 17.9108 134.522 17.7141 134.657 17.4718L135.766 17.4719ZM131.715 15.5912H134.662C134.677 15.3953 134.65 15.1986 134.584 15.0137C134.518 14.8287 134.414 14.6596 134.279 14.5172C134.143 14.3749 133.98 14.2624 133.799 14.187C133.617 14.1116 133.422 14.0749 133.226 14.0795C133.027 14.0769 132.829 14.1143 132.644 14.1894C132.46 14.2645 132.292 14.3758 132.151 14.5167C132.011 14.6576 131.899 14.8252 131.824 15.0098C131.749 15.1943 131.712 15.392 131.715 15.5912H131.715Z" fill="white"/>
</svg>
