<svg width="81" height="32" viewBox="0 0 81 32" fill="none" xmlns="http://www.w3.org/2000/svg">
<path fill-rule="evenodd" clip-rule="evenodd" d="M13.9311 5.46311C15.8182 5.43251 17.6418 6.13659 19.0087 7.42347L22.7848 3.69168C20.3887 1.46917 17.2161 0.249049 13.9311 0.286609C11.4796 0.286582 9.07623 0.959879 6.98908 2.23143C4.90194 3.50296 3.21287 5.32276 2.1104 7.48793L2.11051 7.48996C1.18387 9.31066 0.701294 11.3206 0.701294 13.3588C0.701294 15.397 1.18387 17.407 2.11051 19.2277L2.1104 19.2323C3.21287 21.3975 4.90194 23.2173 6.98908 24.4888C9.07623 25.7604 11.4796 26.4337 13.9311 26.4337V26.4292C17.5027 26.4292 20.5078 25.2712 22.6972 23.2731L22.7175 23.2729C25.2147 20.997 26.6533 17.6341 26.6533 13.6556H26.6375C26.6398 12.7618 26.5646 11.8695 26.4127 10.9885H13.9312V16.0316H21.0902C20.9443 16.8361 20.6348 17.6029 20.1805 18.2856C19.7261 18.9683 19.1364 19.5527 18.4468 20.0034V20.0191L18.4266 20.0036C17.2397 20.7948 15.7113 21.2549 13.9311 21.2549C10.4808 21.2549 7.5521 18.9567 6.51365 15.8606L6.50469 15.8604C5.95031 14.2377 5.95031 12.4799 6.50469 10.8572V10.8552C7.5521 7.75686 10.4808 5.46089 13.922 5.46089L13.9311 5.46311ZM38.5931 12.8463V4.90481V4.9026H43.538C44.3335 4.89637 45.1131 5.12297 45.7787 5.55387C46.4443 5.9848 46.9661 6.60075 47.2785 7.32424C47.5909 8.04773 47.6799 8.84642 47.5342 9.61979C47.3886 10.3932 47.0148 11.1067 46.46 11.6705C46.0818 12.0558 45.6269 12.3593 45.1238 12.5617C44.6208 12.7641 44.0809 12.861 43.538 12.8463H38.5931ZM38.5931 24.8551V15.649H43.4818C45.4972 15.6505 47.1906 15.0044 48.5617 13.7109C49.2317 13.0967 49.7664 12.3522 50.132 11.5242C50.4975 10.6962 50.6863 9.80239 50.6863 8.89888C50.6863 7.99538 50.4975 7.1016 50.132 6.27356C49.7664 5.44552 49.2317 4.70108 48.5617 4.0869C47.888 3.44372 47.0924 2.93865 46.2206 2.60069C45.3488 2.26271 44.418 2.09855 43.4818 2.11765H35.6351V24.8551H38.5931ZM53.9386 21.1604C53.7678 20.8283 53.6798 20.4606 53.6819 20.0879C53.6819 19.2433 54.0843 18.535 54.889 17.9631C55.6936 17.3911 56.6953 17.1051 57.8941 17.1051C59.5454 17.1036 60.8319 17.4637 61.7534 18.1853C61.7535 18.792 61.6231 19.3917 61.3708 19.9447C61.1186 20.4976 60.7502 20.9912 60.2901 21.3926C59.4067 22.2649 58.2098 22.7556 56.9613 22.7573C56.1299 22.7727 55.3186 22.5043 54.6641 21.9971C54.3583 21.7795 54.1096 21.4926 53.9386 21.1604ZM62.6727 10.5173C61.414 9.36296 59.6908 8.78583 57.5029 8.78583C54.6949 8.78583 52.5746 9.80083 51.142 11.8308L53.7494 13.4511C54.7159 12.0746 56.0232 11.3863 57.6715 11.3863C58.7266 11.3717 59.7483 11.7511 60.5329 12.4487C60.9181 12.7637 61.2276 13.1595 61.4391 13.6073C61.6506 14.0551 61.7586 14.5438 61.7557 15.0381V15.7049C60.6183 15.0707 59.1708 14.7536 57.4131 14.7536C55.3482 14.7521 53.6998 15.2285 52.4682 16.1827C51.2364 17.137 50.6206 18.4172 50.6206 20.0235C50.6071 20.7482 50.7576 21.4667 51.0609 22.1265C51.3642 22.7864 51.8128 23.3709 52.3738 23.8375C53.5403 24.8554 54.9968 25.3622 56.7321 25.3622C58.7684 25.3622 60.3973 24.4731 61.6186 22.695H61.7489V24.8554H64.5676V15.2648C64.5631 13.2541 63.9315 11.6715 62.6727 10.5173ZM80.8184 9.28803L70.9442 31.7143H67.8896L71.5556 23.8685L65.0598 9.28803H68.2763L72.9716 20.4701H73.0346L77.6019 9.28803H80.8184Z" fill="white"/>
</svg>
