<svg width="135" height="40" viewBox="0 0 135 40" fill="none" xmlns="http://www.w3.org/2000/svg">
<rect x="0.5" y="0.5" width="133.667" height="39" rx="4.5" stroke="#EDEDED"/>
<path d="M129.679 39.5H4.98765C2.52175 39.5 0.5 37.475 0.5 35V5C0.5 2.52498 2.52175 0.5 4.98765 0.5H129.679C132.145 0.5 134.167 2.52498 134.167 5V35C134.167 37.475 132.145 39.5 129.679 39.5Z" stroke="#EDEDED"/>
<path d="M47.3023 10.2399C47.3023 11.0799 47.0529 11.7499 46.5542 12.2399C45.9956 12.8299 45.2574 13.1299 44.3596 13.1299C43.4918 13.1299 42.7636 12.8299 42.1551 12.2299C41.5466 11.6299 41.2473 10.8799 41.2473 9.99992C41.2473 9.10992 41.5466 8.36992 42.1551 7.76992C42.7636 7.16992 43.4918 6.86992 44.3596 6.86992C44.7886 6.86992 45.1975 6.94992 45.5866 7.11992C45.9756 7.28992 46.2848 7.50992 46.5243 7.78992L45.9956 8.31992C45.5966 7.84992 45.0579 7.60992 44.3596 7.60992C43.7312 7.60992 43.1825 7.82992 42.7237 8.27992C42.2648 8.71992 42.0354 9.29992 42.0354 10.0099C42.0354 10.7199 42.2648 11.2999 42.7237 11.7399C43.1825 12.1799 43.7312 12.4099 44.3596 12.4099C45.028 12.4099 45.5866 12.1899 46.0355 11.7399C46.3247 11.4499 46.4943 11.0399 46.5342 10.5199H44.3596V9.78992H47.2624C47.2824 9.94992 47.3023 10.0999 47.3023 10.2399Z" fill="#EDEDED" stroke="#EDEDED" stroke-width="0.2" stroke-miterlimit="10"/>
<path d="M51.9012 7.74078H49.1781V9.64078H51.6319V10.3608H49.1781V12.2608H51.9012V13.0008H48.41V7.00078H51.9012V7.74078Z" fill="#EDEDED" stroke="#EDEDED" stroke-width="0.2" stroke-miterlimit="10"/>
<path d="M55.1432 13.0008H54.3751V7.74078H52.6992V7.00078H56.809V7.74078H55.1332V13.0008H55.1432Z" fill="#EDEDED" stroke="#EDEDED" stroke-width="0.2" stroke-miterlimit="10"/>
<path d="M59.7916 13.0008V7.00078H60.5597V13.0008H59.7916Z" fill="#EDEDED" stroke="#EDEDED" stroke-width="0.2" stroke-miterlimit="10"/>
<path d="M63.9713 13.0008H63.2032V7.74078H61.5273V7.00078H65.6372V7.74078H63.9613V13.0008H63.9713Z" fill="#EDEDED" stroke="#EDEDED" stroke-width="0.2" stroke-miterlimit="10"/>
<path d="M73.4282 12.22C72.8397 12.83 72.1115 13.13 71.2337 13.13C70.3558 13.13 69.6276 12.83 69.0391 12.22C68.4505 11.61 68.1613 10.87 68.1613 9.99996C68.1613 9.12996 68.4505 8.37996 69.0391 7.77996C69.6276 7.16996 70.3558 6.86996 71.2337 6.86996C72.1015 6.86996 72.8297 7.16996 73.4282 7.77996C74.0168 8.38996 74.316 9.12996 74.316 9.99996C74.306 10.88 74.0168 11.62 73.4282 12.22ZM69.6077 11.72C70.0466 12.17 70.5952 12.39 71.2337 12.39C71.8721 12.39 72.4207 12.17 72.8596 11.72C73.2985 11.27 73.528 10.7 73.528 9.99996C73.528 9.29996 73.3085 8.72996 72.8596 8.27996C72.4207 7.82996 71.8721 7.59996 71.2337 7.59996C70.5952 7.59996 70.0466 7.81997 69.6077 8.26997C69.1688 8.72997 68.9393 9.29996 68.9393 9.99996C68.9393 10.7 69.1688 11.27 69.6077 11.72Z" fill="#EDEDED" stroke="#EDEDED" stroke-width="0.2" stroke-miterlimit="10"/>
<path d="M75.3928 13.0008V7.00078H76.3305L79.2433 11.6708H79.2732L79.2433 10.5108V7.00078H80.0114V13.0008H79.2134L76.1709 8.11078H76.141L76.1709 9.27078V13.0008H75.3928Z" fill="#EDEDED" stroke="#EDEDED" stroke-width="0.2" stroke-miterlimit="10"/>
<mask id="path-10-inside-1_1_933" fill="white">
<path d="M67.9703 21.7496C65.6261 21.7496 63.7109 23.5396 63.7109 25.9996C63.7109 28.4496 65.6261 30.2496 67.9703 30.2496C70.3145 30.2496 72.2298 28.4496 72.2298 25.9996C72.2298 23.5396 70.3145 21.7496 67.9703 21.7496ZM67.9703 28.5796C66.6835 28.5796 65.5763 27.5196 65.5763 25.9996C65.5763 24.4696 66.6835 23.4196 67.9703 23.4196C69.2572 23.4196 70.3644 24.4696 70.3644 25.9996C70.3644 27.5196 69.2472 28.5796 67.9703 28.5796ZM58.6734 21.7496C56.3292 21.7496 54.4139 23.5396 54.4139 25.9996C54.4139 28.4496 56.3292 30.2496 58.6734 30.2496C61.0175 30.2496 62.9328 28.4496 62.9328 25.9996C62.9328 23.5396 61.0175 21.7496 58.6734 21.7496ZM58.6734 28.5796C57.3865 28.5796 56.2793 27.5196 56.2793 25.9996C56.2793 24.4696 57.3865 23.4196 58.6734 23.4196C59.9602 23.4196 61.0674 24.4696 61.0674 25.9996C61.0674 27.5196 59.9602 28.5796 58.6734 28.5796ZM47.6207 23.0596V24.8596H51.93C51.8004 25.8696 51.4612 26.6196 50.9525 27.1296C50.324 27.7596 49.3464 28.4496 47.6307 28.4496C44.9773 28.4496 42.9024 26.3096 42.9024 23.6496C42.9024 20.9896 44.9773 18.8496 47.6307 18.8496C49.0572 18.8496 50.1046 19.4096 50.8727 20.1396L52.1395 18.8696C51.0622 17.8396 49.6357 17.0496 47.6207 17.0496C43.9897 17.0496 40.9373 20.0096 40.9373 23.6596C40.9373 27.2996 43.9897 30.2696 47.6207 30.2696C49.5858 30.2696 51.0622 29.6296 52.2193 28.4196C53.4064 27.2296 53.7755 25.5496 53.7755 24.1996C53.7755 23.7796 53.7456 23.3896 53.6757 23.0696H47.6207V23.0596ZM92.8188 24.4596C92.4697 23.5096 91.3924 21.7496 89.1878 21.7496C87.0032 21.7496 85.1877 23.4696 85.1877 25.9996C85.1877 28.3796 86.9833 30.2496 89.3973 30.2496C91.3425 30.2496 92.4697 29.0596 92.9286 28.3696L91.4821 27.3996C91.0033 28.1096 90.345 28.5796 89.3973 28.5796C88.4496 28.5796 87.7713 28.1396 87.3424 27.2896L93.0183 24.9396L92.8188 24.4596ZM87.0332 25.8796C86.9833 24.2396 88.3 23.3996 89.2477 23.3996C89.9858 23.3996 90.6143 23.7696 90.8238 24.2996L87.0332 25.8796ZM82.4246 29.9996H84.2899V17.4996H82.4246V29.9996ZM79.3721 22.6996H79.3023C78.8833 22.1996 78.0853 21.7496 77.0678 21.7496C74.9431 21.7496 72.9979 23.6196 72.9979 26.0196C72.9979 28.3996 74.9431 30.2596 77.0678 30.2596C78.0753 30.2596 78.8833 29.8096 79.3023 29.2896H79.3621V29.8996C79.3621 31.5296 78.4943 32.3996 77.0977 32.3996C75.9606 32.3996 75.2523 31.5796 74.963 30.8896L73.3371 31.5696C73.8059 32.6996 75.0428 34.0796 77.0977 34.0796C79.2823 34.0796 81.1278 32.7896 81.1278 29.6496V22.0096H79.3621V22.6996H79.3721ZM77.2274 28.5796C75.9406 28.5796 74.8633 27.4996 74.8633 26.0196C74.8633 24.5196 75.9406 23.4296 77.2274 23.4296C78.4943 23.4296 79.4918 24.5296 79.4918 26.0196C79.5018 27.4996 78.5043 28.5796 77.2274 28.5796ZM101.557 17.4996H97.0982V29.9996H98.9636V25.2596H101.567C103.632 25.2596 105.657 23.7596 105.657 21.3796C105.657 18.9996 103.612 17.4996 101.557 17.4996ZM101.597 23.5196H98.9536V19.2296H101.597C102.994 19.2296 103.782 20.3896 103.782 21.3696C103.782 22.3496 102.994 23.5196 101.597 23.5196ZM113.109 21.7296C111.762 21.7296 110.365 22.3296 109.787 23.6396L111.443 24.3296C111.792 23.6396 112.45 23.4096 113.139 23.4096C114.106 23.4096 115.084 23.9896 115.094 25.0196V25.1496C114.755 24.9596 114.036 24.6696 113.149 24.6696C111.363 24.6696 109.557 25.6496 109.557 27.4796C109.557 29.1496 111.014 30.2296 112.65 30.2296C113.897 30.2296 114.595 29.6696 115.024 29.0096H115.084V29.9796H116.879V25.1896C116.889 22.9696 115.233 21.7296 113.109 21.7296ZM112.879 28.5796C112.271 28.5796 111.423 28.2696 111.423 27.5196C111.423 26.5596 112.48 26.1896 113.398 26.1896C114.216 26.1896 114.605 26.3696 115.094 26.6096C114.954 27.7596 113.957 28.5796 112.879 28.5796ZM123.433 21.9996L121.298 27.4196H121.238L119.024 21.9996H117.019L120.341 29.5796L118.445 33.7896H120.391L125.508 21.9996H123.433ZM106.675 29.9996H108.54V17.4996H106.675V29.9996Z"/>
</mask>
<path d="M67.9703 21.7496C65.6261 21.7496 63.7109 23.5396 63.7109 25.9996C63.7109 28.4496 65.6261 30.2496 67.9703 30.2496C70.3145 30.2496 72.2298 28.4496 72.2298 25.9996C72.2298 23.5396 70.3145 21.7496 67.9703 21.7496ZM67.9703 28.5796C66.6835 28.5796 65.5763 27.5196 65.5763 25.9996C65.5763 24.4696 66.6835 23.4196 67.9703 23.4196C69.2572 23.4196 70.3644 24.4696 70.3644 25.9996C70.3644 27.5196 69.2472 28.5796 67.9703 28.5796ZM58.6734 21.7496C56.3292 21.7496 54.4139 23.5396 54.4139 25.9996C54.4139 28.4496 56.3292 30.2496 58.6734 30.2496C61.0175 30.2496 62.9328 28.4496 62.9328 25.9996C62.9328 23.5396 61.0175 21.7496 58.6734 21.7496ZM58.6734 28.5796C57.3865 28.5796 56.2793 27.5196 56.2793 25.9996C56.2793 24.4696 57.3865 23.4196 58.6734 23.4196C59.9602 23.4196 61.0674 24.4696 61.0674 25.9996C61.0674 27.5196 59.9602 28.5796 58.6734 28.5796ZM47.6207 23.0596V24.8596H51.93C51.8004 25.8696 51.4612 26.6196 50.9525 27.1296C50.324 27.7596 49.3464 28.4496 47.6307 28.4496C44.9773 28.4496 42.9024 26.3096 42.9024 23.6496C42.9024 20.9896 44.9773 18.8496 47.6307 18.8496C49.0572 18.8496 50.1046 19.4096 50.8727 20.1396L52.1395 18.8696C51.0622 17.8396 49.6357 17.0496 47.6207 17.0496C43.9897 17.0496 40.9373 20.0096 40.9373 23.6596C40.9373 27.2996 43.9897 30.2696 47.6207 30.2696C49.5858 30.2696 51.0622 29.6296 52.2193 28.4196C53.4064 27.2296 53.7755 25.5496 53.7755 24.1996C53.7755 23.7796 53.7456 23.3896 53.6757 23.0696H47.6207V23.0596ZM92.8188 24.4596C92.4697 23.5096 91.3924 21.7496 89.1878 21.7496C87.0032 21.7496 85.1877 23.4696 85.1877 25.9996C85.1877 28.3796 86.9833 30.2496 89.3973 30.2496C91.3425 30.2496 92.4697 29.0596 92.9286 28.3696L91.4821 27.3996C91.0033 28.1096 90.345 28.5796 89.3973 28.5796C88.4496 28.5796 87.7713 28.1396 87.3424 27.2896L93.0183 24.9396L92.8188 24.4596ZM87.0332 25.8796C86.9833 24.2396 88.3 23.3996 89.2477 23.3996C89.9858 23.3996 90.6143 23.7696 90.8238 24.2996L87.0332 25.8796ZM82.4246 29.9996H84.2899V17.4996H82.4246V29.9996ZM79.3721 22.6996H79.3023C78.8833 22.1996 78.0853 21.7496 77.0678 21.7496C74.9431 21.7496 72.9979 23.6196 72.9979 26.0196C72.9979 28.3996 74.9431 30.2596 77.0678 30.2596C78.0753 30.2596 78.8833 29.8096 79.3023 29.2896H79.3621V29.8996C79.3621 31.5296 78.4943 32.3996 77.0977 32.3996C75.9606 32.3996 75.2523 31.5796 74.963 30.8896L73.3371 31.5696C73.8059 32.6996 75.0428 34.0796 77.0977 34.0796C79.2823 34.0796 81.1278 32.7896 81.1278 29.6496V22.0096H79.3621V22.6996H79.3721ZM77.2274 28.5796C75.9406 28.5796 74.8633 27.4996 74.8633 26.0196C74.8633 24.5196 75.9406 23.4296 77.2274 23.4296C78.4943 23.4296 79.4918 24.5296 79.4918 26.0196C79.5018 27.4996 78.5043 28.5796 77.2274 28.5796ZM101.557 17.4996H97.0982V29.9996H98.9636V25.2596H101.567C103.632 25.2596 105.657 23.7596 105.657 21.3796C105.657 18.9996 103.612 17.4996 101.557 17.4996ZM101.597 23.5196H98.9536V19.2296H101.597C102.994 19.2296 103.782 20.3896 103.782 21.3696C103.782 22.3496 102.994 23.5196 101.597 23.5196ZM113.109 21.7296C111.762 21.7296 110.365 22.3296 109.787 23.6396L111.443 24.3296C111.792 23.6396 112.45 23.4096 113.139 23.4096C114.106 23.4096 115.084 23.9896 115.094 25.0196V25.1496C114.755 24.9596 114.036 24.6696 113.149 24.6696C111.363 24.6696 109.557 25.6496 109.557 27.4796C109.557 29.1496 111.014 30.2296 112.65 30.2296C113.897 30.2296 114.595 29.6696 115.024 29.0096H115.084V29.9796H116.879V25.1896C116.889 22.9696 115.233 21.7296 113.109 21.7296ZM112.879 28.5796C112.271 28.5796 111.423 28.2696 111.423 27.5196C111.423 26.5596 112.48 26.1896 113.398 26.1896C114.216 26.1896 114.605 26.3696 115.094 26.6096C114.954 27.7596 113.957 28.5796 112.879 28.5796ZM123.433 21.9996L121.298 27.4196H121.238L119.024 21.9996H117.019L120.341 29.5796L118.445 33.7896H120.391L125.508 21.9996H123.433ZM106.675 29.9996H108.54V17.4996H106.675V29.9996Z" fill="#EDEDED" stroke="#EDEDED" stroke-width="2" mask="url(#path-10-inside-1_1_933)"/>
<path d="M10.3304 31.2285L10.7491 30.9551C10.7546 30.9636 10.7619 30.9707 10.7703 30.9758C10.7787 30.981 10.7881 30.9842 10.7978 30.9852C10.8074 30.9862 10.8172 30.9851 10.8264 30.9818C10.8354 30.9787 10.8437 30.9736 10.8507 30.9668C10.8509 30.9666 10.8511 30.9664 10.8513 30.9663L21.8863 19.9037C21.8864 19.9037 21.8865 19.9036 21.8865 19.9035C21.893 19.897 21.8982 19.8891 21.9018 19.8804C21.9053 19.8719 21.9071 19.8628 21.9072 19.8536C21.907 19.8451 21.9052 19.8367 21.9019 19.8289C21.8984 19.8208 21.8934 19.8135 21.8872 19.8075C21.8872 19.8075 21.8872 19.8075 21.8872 19.8074L10.6756 8.93021L10.6756 8.93021C10.6677 8.92253 10.658 8.91709 10.6477 8.91428C10.6373 8.91146 10.6264 8.91133 10.616 8.91388C10.6056 8.91644 10.5959 8.92163 10.5878 8.9291C10.5797 8.93657 10.5735 8.94608 10.5699 8.95682L10.5681 8.96217L10.5681 8.96216C10.5088 9.13397 10.4776 9.31433 10.4758 9.49618V30.041C10.4758 30.3682 10.5665 30.6736 10.7499 30.9565L10.3304 31.2285ZM10.3304 31.2285C10.3764 31.299 10.4375 31.3583 10.5091 31.4022C10.5808 31.4461 10.6613 31.4735 10.7449 31.4824C10.8284 31.4913 10.9129 31.4814 10.9922 31.4536C11.0714 31.4257 11.1435 31.3806 11.2033 31.3213L10.3304 31.2285Z" fill="#EDEDED" stroke="#EDEDED"/>
<path d="M23.3976 18.3042L23.3955 18.3021L12.8954 8.11452C12.8953 8.11448 12.8953 8.11443 12.8952 8.11439C12.8838 8.10318 12.8765 8.08805 12.8749 8.0716C12.8734 8.05566 12.8775 8.03982 12.8862 8.02676C12.8955 8.01429 12.9087 8.00563 12.9233 8.00197C12.9368 7.99859 12.951 7.99958 12.9639 8.00482L26.3204 15.3373C26.3206 15.3374 26.3209 15.3375 26.3211 15.3377C26.3298 15.3426 26.3373 15.3496 26.3432 15.358C26.3491 15.3667 26.3531 15.3768 26.3546 15.3874C26.3561 15.398 26.3551 15.4089 26.3518 15.419C26.3485 15.4289 26.3431 15.4379 26.3359 15.4452C26.3358 15.4454 26.3356 15.4455 26.3355 15.4457L23.486 18.3022L23.4846 18.3036C23.4729 18.3154 23.4573 18.3219 23.4412 18.322C23.4252 18.3221 23.4095 18.3159 23.3976 18.3042Z" fill="#EDEDED" stroke="#EDEDED"/>
<path d="M31.6876 18.2831L31.6877 18.2832C32.2387 18.5857 32.5643 19.1362 32.5643 19.767C32.5643 20.3978 32.2387 20.9484 31.6877 21.2509C31.6877 21.2509 31.6877 21.2509 31.6877 21.2509L28.3774 23.068C28.3772 23.0681 28.3771 23.0681 28.377 23.0682C28.3645 23.0749 28.3504 23.0774 28.3365 23.0756C28.3227 23.0737 28.3097 23.0675 28.2992 23.0577C28.2991 23.0576 28.2989 23.0574 28.2988 23.0573L25.0193 19.8749C25.0193 19.8749 25.0193 19.8749 25.0193 19.8749C25.0131 19.8689 25.0081 19.8616 25.0047 19.8535L24.5449 20.0499L25.0047 19.8535C25.0012 19.8454 24.9993 19.8366 24.9993 19.8277C24.9992 19.8187 25.0009 19.8099 25.0042 19.8017C25.0075 19.7936 25.0124 19.7863 25.0184 19.7802C25.0185 19.7801 25.0185 19.7801 25.0186 19.78L28.3086 16.4818C28.319 16.4717 28.3322 16.4652 28.3462 16.4632C28.3602 16.4612 28.3745 16.4637 28.3872 16.4704C28.3873 16.4705 28.3875 16.4706 28.3876 16.4707L31.6876 18.2831Z" fill="#EDEDED" stroke="#EDEDED"/>
<path d="M14.0171 30.809L14.0172 30.8091L14.0258 30.8004L23.4208 21.3821C23.4329 21.37 23.449 21.3634 23.4655 21.3633C23.482 21.3631 23.4982 21.3694 23.5104 21.3813C23.5104 21.3813 23.5105 21.3813 23.5105 21.3814L26.3153 24.1014L26.3165 24.1026C26.3237 24.1095 26.3293 24.1182 26.3327 24.128L26.8049 23.9635L26.3328 24.128C26.3361 24.1378 26.3372 24.1482 26.3358 24.1585C26.3345 24.1688 26.3307 24.1786 26.3249 24.187L26.7372 24.4699L26.3249 24.187C26.3191 24.1954 26.3116 24.2022 26.3029 24.207L26.3019 24.2075L14.102 30.9044L14.1019 30.9043L14.0906 30.9109C14.0775 30.9185 14.0622 30.921 14.0475 30.9181C14.0329 30.9151 14.0195 30.9068 14.0102 30.8943C14.0008 30.8818 13.9962 30.8661 13.9975 30.8502C13.9989 30.8343 14.0059 30.8196 14.0171 30.809Z" fill="#EDEDED" stroke="#EDEDED"/>
</svg>
