<svg width="54" height="32" viewBox="0 0 54 32" fill="none" xmlns="http://www.w3.org/2000/svg">
<path fill-rule="evenodd" clip-rule="evenodd" d="M16.1587 31.7143C19.7275 31.7143 23.0223 30.5513 25.6754 28.5878C22.3099 25.4234 20.212 20.9541 20.212 16.0003C20.212 11.046 22.3099 6.57673 25.6754 3.41267C23.0223 1.44882 19.7275 0.285767 16.1587 0.285767C7.38006 0.285767 0.26355 7.32141 0.26355 16.0003C0.26355 24.6787 7.38006 31.7143 16.1587 31.7143ZM37.7803 0.285767C34.211 0.285767 30.9166 1.44882 28.2635 3.41267C31.6286 6.57673 33.7265 11.046 33.7265 16.0003C33.7265 20.9541 31.6286 25.4234 28.2635 28.5878C30.9166 30.5513 34.211 31.7143 37.7803 31.7143C46.5585 31.7143 53.675 24.6787 53.675 16.0003C53.675 7.32141 46.5585 0.285767 37.7803 0.285767ZM32.0534 16.0003C32.0534 11.449 30.0964 7.34967 26.9695 4.48001C23.8422 7.34967 21.8851 11.449 21.8851 16.0003C21.8851 20.5511 23.8422 24.6504 26.9695 27.5201C30.0964 24.6504 32.0534 20.5511 32.0534 16.0003Z" fill="#EDEDED"/>
</svg>
