<svg width="40" height="26" viewBox="0 0 40 26" fill="none" xmlns="http://www.w3.org/2000/svg">
<path d="M38 2H2V5.16474H38V2Z" fill="#EDEDED"/>
<path d="M18.8756 8.65748L17.0033 17.3638H14.7388L16.6114 8.65748H18.8756ZM28.4024 14.2793L29.5943 11.0099L30.2799 14.2793H28.4024ZM30.9299 17.3638H33.0239L31.1946 8.65748H29.2629C28.8273 8.65748 28.4608 8.90877 28.2983 9.29592L24.9003 17.3638H27.2786L27.7506 16.0637H30.6554L30.9299 17.3638ZM25.0185 14.5215C25.0285 12.224 21.8251 12.0965 21.8465 11.0701C21.8536 10.758 22.1525 10.4254 22.8067 10.3406C23.131 10.299 24.0257 10.2655 25.04 10.7303L25.4367 8.88317C24.8919 8.68736 24.1908 8.4986 23.3186 8.4986C21.08 8.4986 19.5052 9.68136 19.4925 11.3763C19.4781 12.6298 20.6177 13.3288 21.4742 13.746C22.3572 14.1725 22.653 14.4468 22.649 14.8277C22.643 15.4119 21.9444 15.6706 21.2947 15.6804C20.1554 15.6981 19.4951 15.3741 18.9688 15.13L18.5578 17.0385C19.0879 17.2798 20.0645 17.4897 21.0753 17.5005C23.4551 17.5005 25.0115 16.3317 25.0185 14.5215ZM15.6399 8.65748L11.9708 17.3638H9.57749L7.77174 10.4156C7.66233 9.9883 7.567 9.83131 7.2343 9.65078C6.68946 9.35655 5.79063 9.08156 5 8.91048L5.05359 8.65748H8.90693C9.39766 8.65748 9.83926 8.98263 9.95159 9.54481L10.9054 14.5833L13.261 8.65748H15.6399Z" fill="#EDEDED"/>
<path d="M38 20.8351H2V24.0002H38V20.8351Z" fill="#EDEDED"/>
<rect x="0.5" y="0.5" width="39" height="25" stroke="#EDEDED"/>
</svg>
