<svg width="58" height="38" viewBox="0 0 58 38" fill="none" xmlns="http://www.w3.org/2000/svg">
<path d="M54.3411 3.28574H3.74084V7.80679H54.3411V3.28574Z" fill="#EDEDED"/>
<path d="M27.4605 12.7964L24.829 25.2341H21.646L24.278 12.7964H27.4605ZM40.8511 20.8276L42.5263 16.1571L43.4901 20.8276H40.8511ZM44.4036 25.2341H47.3468L44.7757 12.7964H42.0606C41.4484 12.7964 40.9332 13.1554 40.7048 13.7085L35.9287 25.2341H39.2715L39.9349 23.3768H44.0178L44.4036 25.2341ZM36.0948 21.1736C36.1088 17.8914 31.6062 17.7094 31.6364 16.243C31.6463 15.7971 32.0664 15.3221 32.986 15.2009C33.4418 15.1415 34.6994 15.0936 36.125 15.7576L36.6827 13.1189C35.9169 12.8391 34.9314 12.5695 33.7054 12.5695C30.5589 12.5695 28.3456 14.2591 28.3277 16.6805C28.3074 18.4712 29.9093 19.4697 31.113 20.0657C32.3542 20.675 32.7699 21.0668 32.7643 21.6111C32.7559 22.4456 31.774 22.8151 30.8607 22.8291C29.2593 22.8544 28.3313 22.3916 27.5916 22.0429L27.0139 24.7693C27.7589 25.1141 29.1316 25.4139 30.5524 25.4294C33.8973 25.4294 36.0849 23.7596 36.0948 21.1736ZM22.9125 12.7964L17.7555 25.2341H14.3915L11.8534 15.3081C11.6996 14.6976 11.5656 14.4733 11.098 14.2154C10.3322 13.7951 9.0688 13.4023 7.95752 13.1579L8.03284 12.7964H13.449C14.1387 12.7964 14.7594 13.2609 14.9173 14.064L16.2579 21.2619L19.5688 12.7964H22.9125Z" fill="#EDEDED"/>
<path d="M54.3411 30.193H3.74084V34.7145H54.3411V30.193Z" fill="#EDEDED"/>
<rect x="1.63247" y="1.13137" width="54.817" height="35.7373" stroke="#EDEDED" stroke-width="1.40556"/>
</svg>
