<svg width="74" height="57" viewBox="0 0 74 57" fill="none" xmlns="http://www.w3.org/2000/svg">
<path d="M71.9126 28.5486C71.9126 35.8688 68.0475 42.571 61.651 47.4779C55.2533 52.3857 46.3679 55.4525 36.5088 55.4525C26.6497 55.4525 17.7642 52.3857 11.3666 47.4779C4.97003 42.571 1.10495 35.8688 1.10495 28.5486C1.10495 21.2285 4.97003 14.5263 11.3666 9.61938C17.7642 4.71159 26.6497 1.6448 36.5088 1.6448C46.3679 1.6448 55.2533 4.71159 61.651 9.61938C68.0475 14.5263 71.9126 21.2285 71.9126 28.5486Z" stroke="#EDEDED" stroke-width="2.19232"/>
<path d="M19.9002 17.3408L26.2207 35.1188L32.3695 17.3408H36.9726L28.4535 39.7565H23.7818L15.1598 17.3408H19.9002Z" fill="#EDEDED"/>
<path d="M45.3542 29.5844C44.3694 29.3989 43.442 29.1516 42.5717 28.8424C41.7015 28.5126 40.9344 28.09 40.2702 27.5747C39.629 27.0594 39.1138 26.4514 38.7244 25.7506C38.358 25.0291 38.1748 24.1944 38.1748 23.2462C38.1748 22.195 38.4496 21.2777 38.9993 20.4945C39.5489 19.7112 40.2702 19.0619 41.1634 18.5466C42.0565 18.0107 43.0641 17.6088 44.1862 17.3408C45.3084 17.0729 46.4419 16.9389 47.587 16.9389C48.8236 16.9389 49.9801 17.0729 51.0564 17.3408C52.1327 17.5882 53.0946 17.9901 53.9419 18.5466C54.7892 19.0826 55.4991 19.7731 56.0716 20.6182C56.667 21.4426 57.0907 22.4423 57.3426 23.6172H53.1175C52.9343 22.937 52.648 22.3805 52.2587 21.9476C51.8694 21.4942 51.4114 21.1438 50.8847 20.8964C50.3579 20.6285 49.7854 20.443 49.1671 20.3399C48.5717 20.2162 47.9648 20.1544 47.3465 20.1544C46.8656 20.1544 46.3389 20.2059 45.7664 20.309C45.2168 20.412 44.7015 20.5872 44.2206 20.8346C43.7626 21.0613 43.3733 21.3602 43.0527 21.7312C42.732 22.1022 42.5717 22.566 42.5717 23.1225C42.5717 23.9882 42.9153 24.6581 43.6023 25.1322C44.3122 25.5857 45.2053 25.9052 46.2816 26.0907L49.3389 26.6163C50.4381 26.8018 51.4915 27.0491 52.4991 27.3583C53.5297 27.6469 54.4342 28.0488 55.2129 28.5641C56.0144 29.0794 56.6556 29.7184 57.1365 30.481C57.6174 31.2437 57.8579 32.1918 57.8579 33.3255C57.8579 34.4592 57.5716 35.4589 56.9991 36.3246C56.4266 37.1697 55.6709 37.8808 54.7319 38.4579C53.8159 39.0144 52.7625 39.437 51.5717 39.7256C50.4037 40.0141 49.2015 40.1584 47.9648 40.1584C46.4763 40.1584 45.1137 39.9832 43.8771 39.6328C42.6633 39.2824 41.5985 38.7774 40.6824 38.1178C39.7893 37.4376 39.068 36.6131 38.5183 35.6444C37.9687 34.6756 37.6252 33.5729 37.4878 32.3361H41.7817C42.171 33.882 42.9038 35.0363 43.9801 35.799C45.0565 36.5616 46.4534 36.9429 48.1709 36.9429C48.9038 36.9429 49.5908 36.8708 50.232 36.7265C50.8961 36.5822 51.4686 36.3658 51.9495 36.0772C52.4304 35.7887 52.8083 35.4382 53.0831 35.026C53.3579 34.5932 53.4953 34.1088 53.4953 33.5729C53.4953 32.9957 53.335 32.5113 53.0144 32.1197C52.7167 31.7281 52.3159 31.3983 51.8121 31.1303C51.3312 30.8624 50.7816 30.6562 50.1633 30.512C49.5679 30.3471 48.9725 30.2131 48.377 30.11L45.3542 29.5844Z" fill="#EDEDED"/>
</svg>
